<?xml version="1.0" encoding="UTF-8"?>
<svg width="80" height="80" viewBox="0 0 80 80" fill="none" xmlns="http://www.w3.org/2000/svg">
    <!-- 圓形背景 -->
    <circle cx="40" cy="40" r="38" fill="url(#logoGradient)"/>
    <circle cx="40" cy="40" r="37" stroke="white" stroke-width="2" opacity="0.3"/>
    
    <!-- 長頸鹿剪影 -->
    <!-- 頭部 -->
    <ellipse cx="40" cy="28" rx="8" ry="10" fill="white"/>
    <!-- 角 -->
    <circle cx="36" cy="18" r="2" fill="white"/>
    <circle cx="44" cy="18" r="2" fill="white"/>
    <rect x="35" y="18" width="2" height="6" fill="white"/>
    <rect x="43" y="18" width="2" height="6" fill="white"/>
    <!-- 頸部 -->
    <path d="M35 35 Q34 45 33 55 L47 55 Q46 45 45 35 Z" fill="white"/>
    <!-- 斑點 -->
    <circle cx="38" cy="40" r="2.5" fill="url(#logoGradient)" opacity="0.8"/>
    <circle cx="42" cy="45" r="2" fill="url(#logoGradient)" opacity="0.8"/>
    <circle cx="37" cy="48" r="2" fill="url(#logoGradient)" opacity="0.8"/>
    <circle cx="43" cy="51" r="1.5" fill="url(#logoGradient)" opacity="0.8"/>
    <!-- 眼睛 -->
    <circle cx="37" cy="27" r="1.5" fill="url(#logoGradient)"/>
    <circle cx="43" cy="27" r="1.5" fill="url(#logoGradient)"/>
    
    <!-- 漸層定義 -->
    <defs>
        <linearGradient id="logoGradient" x1="0%" y1="0%" x2="100%" y2="100%">
            <stop offset="0%" style="stop-color:#1E3A8A;stop-opacity:1" />
            <stop offset="100%" style="stop-color:#3B82F6;stop-opacity:1" />
        </linearGradient>
    </defs>
</svg>